<mxfile host="app.diagrams.net" modified="2023-01-13T12:47:46.710Z" agent="5.0 (Windows NT 10.0; Win64; x64) AppleWebKit/537.36 (KHTML, like Gecko) Chrome/109.0.0.0 Safari/537.36" version="20.8.5" etag="OAsu4tU6mchdsKkhEm4z" type="github">
  <diagram id="WMEOCwgNoxfWfTwNNx6R" name="Page-1">
    <mxGraphModel dx="607" dy="294" grid="1" gridSize="10" guides="1" tooltips="1" connect="1" arrows="1" fold="1" page="1" pageScale="1" pageWidth="850" pageHeight="1100" math="0" shadow="0">
      <root>
        <mxCell id="0" />
        <mxCell id="1" parent="0" />
        <mxCell id="_kEgFqSPOEPgHgSap2rK-3" style="edgeStyle=orthogonalEdgeStyle;rounded=0;orthogonalLoop=1;jettySize=auto;html=1;exitX=1;exitY=0.5;exitDx=0;exitDy=0;" edge="1" parent="1" source="_kEgFqSPOEPgHgSap2rK-1">
          <mxGeometry relative="1" as="geometry">
            <mxPoint x="220" y="310" as="targetPoint" />
          </mxGeometry>
        </mxCell>
        <mxCell id="_kEgFqSPOEPgHgSap2rK-5" style="edgeStyle=orthogonalEdgeStyle;rounded=0;orthogonalLoop=1;jettySize=auto;html=1;exitX=1;exitY=0.5;exitDx=0;exitDy=0;" edge="1" parent="1" source="_kEgFqSPOEPgHgSap2rK-1">
          <mxGeometry relative="1" as="geometry">
            <mxPoint x="219.9999999999999" y="370" as="targetPoint" />
          </mxGeometry>
        </mxCell>
        <mxCell id="_kEgFqSPOEPgHgSap2rK-1" value="Programming paradigms" style="rounded=0;whiteSpace=wrap;html=1;fillColor=#f5f5f5;fontColor=#333333;strokeColor=#666666;" vertex="1" parent="1">
          <mxGeometry x="40" y="310" width="120" height="60" as="geometry" />
        </mxCell>
        <mxCell id="_kEgFqSPOEPgHgSap2rK-7" value="Declarative" style="rounded=0;whiteSpace=wrap;html=1;fillColor=#d5e8d4;strokeColor=#82b366;" vertex="1" parent="1">
          <mxGeometry x="220" y="350" width="120" height="40" as="geometry" />
        </mxCell>
        <mxCell id="_kEgFqSPOEPgHgSap2rK-8" value="Imperative" style="rounded=0;whiteSpace=wrap;html=1;fillColor=#ffe6cc;strokeColor=#d79b00;" vertex="1" parent="1">
          <mxGeometry x="220" y="290" width="120" height="40" as="geometry" />
        </mxCell>
        <mxCell id="_kEgFqSPOEPgHgSap2rK-9" value="" style="endArrow=none;html=1;rounded=0;" edge="1" parent="1">
          <mxGeometry width="50" height="50" relative="1" as="geometry">
            <mxPoint x="340" y="369.66" as="sourcePoint" />
            <mxPoint x="400" y="369.66" as="targetPoint" />
          </mxGeometry>
        </mxCell>
        <mxCell id="_kEgFqSPOEPgHgSap2rK-10" value="" style="endArrow=none;html=1;rounded=0;" edge="1" parent="1">
          <mxGeometry width="50" height="50" relative="1" as="geometry">
            <mxPoint x="339.9999999999999" y="310.0000000000001" as="sourcePoint" />
            <mxPoint x="399.9999999999999" y="310.0000000000001" as="targetPoint" />
          </mxGeometry>
        </mxCell>
        <mxCell id="_kEgFqSPOEPgHgSap2rK-11" value="Procedural, Structured, Object-Oriented" style="rounded=1;whiteSpace=wrap;html=1;fillColor=#6a00ff;fontColor=#ffffff;strokeColor=#3700CC;" vertex="1" parent="1">
          <mxGeometry x="400" y="285" width="230" height="50" as="geometry" />
        </mxCell>
        <mxCell id="_kEgFqSPOEPgHgSap2rK-12" value="Logic, Functional, DB processing approach" style="rounded=1;whiteSpace=wrap;html=1;fillColor=#1ba1e2;fontColor=#ffffff;strokeColor=#006EAF;" vertex="1" parent="1">
          <mxGeometry x="400" y="345" width="230" height="50" as="geometry" />
        </mxCell>
      </root>
    </mxGraphModel>
  </diagram>
</mxfile>
